<svg width="580" height="400" xmlns="http://www.w3.org/2000/svg"><path fill="#fff" d="M-1-1h582v402H-1z"/><g><ellipse stroke="#0f0f00" ry="160" rx="151" cy="207.438" cx="318.5" stroke-width="1.5" fill="#2afc2a"/><ellipse stroke="#0f0f00" ry="160" rx="151" cy="215.438" cx="282.5" stroke-width="1.5" fill="#fc6a6a"/><ellipse stroke="#0f0f00" ry="160" rx="151" cy="182.438" cx="282.5" stroke-width="1.5" fill="#0fffff"/><ellipse stroke="#0f0f00" ry="160" rx="151" cy="199.438" cx="299.5" stroke-width="1.5" fill="#09c4c4"/><path stroke="#0f0f00" d="M404.135 160.508c-8.456 6.478-44.87 14.693-49.568 14.693H314.65c-6.625 0-16.602.897-21.299 2.953.54.329 1.08.658 1.601.994 3.61 2.312 12.047 5.569 19.513 5.569 3.511 0 6.395-.702 8.845-2.16 10.42-6.142 15.832-6.861 18.972-6.861 3.724 0 6.926 1.177 8.81 3.238 3.538 3.819.938 8.814-1.716 12.73-6.35 9.295-27.048 19.341-49.488 19.341h-.035c-3.132 0-6.2-.201-9.137-.604v19.83c0 4.526 9.137 15.45 36.857 15.45s34.982-22.574 34.982-26.46v-27.52c19.725-7.13 39.91-11.01 49.568-23.758 9.084-11.98.46-13.913-7.987-7.435zm-62.004 28.826c7.04-10.363-.469-10.363-13.621-2.592s-32.418.64-38.99-3.569c-6.571-4.202-13.143-7.44-24.89-7.118-11.746.324-39.449-.982-55.432-3.568-15.965-2.592-43.297-18.298-45.552-14.242-2.353 4.209 1.866 7.124 10.33 14.242 8.448 7.13 44.89 16.945 44.89 16.945v29.801c0 8.753 26.296 22.02 39.909 22.02s23.952-6.478 23.952-11.016v-27.52c22.547 8.111 52.363-3.014 59.404-13.383zM327.98 166.21c15.426 0 27.942-8.625 27.942-19.262 0-10.644-12.516-19.268-27.942-19.268s-27.933 8.624-27.933 19.268c0 10.637 12.507 19.262 27.933 19.262zm-73.618 0c15.426 0 27.933-8.625 27.933-19.262 0-10.644-12.507-19.268-27.933-19.268-15.435 0-27.942 8.624-27.942 19.268 0 10.637 12.499 19.262 27.942 19.262z" stroke-width="1.5" fill="#fc6a6a"/><path stroke="#000" d="M353.727 249.893c-22.358 0-42.094 5.37-54.227 13.581-12.114-8.21-31.86-13.58-54.227-13.58-36.878 0-66.773 14.55-66.773 32.5 0 17.948 29.895 32.5 66.773 32.5 22.358 0 42.104-5.376 54.227-13.586 12.124 8.21 31.869 13.585 54.227 13.585 36.887 0 66.773-14.555 66.773-32.5 0-17.954-29.895-32.5-66.773-32.5zm-.01 59.131c-30.177 0-54.706-11.938-54.706-26.626 0-14.697 24.53-26.64 54.706-26.64 30.196 0 54.735 11.943 54.735 26.64 0 14.688-24.548 26.626-54.735 26.626z" stroke-width="1.5" fill="#0fffff"/><path stroke="#0f0f00" d="M290 49.188c-32.582 0-59 13.065-59 29.181 0 9.219 8.672 17.432 22.175 22.778-1.922 4.74-5.756 9.989-13.166 14.632 0 0 17.297-.852 29.514-10.072.704.128 1.432.225 2.142.344-.668-1.482-1.06-3.022-1.06-4.625 0-10.874 16.268-19.388 37.045-19.388 14.924 0 27.481 4.41 33.393 10.915C346.075 88.66 349 83.685 349 78.366c0-16.113-26.418-29.178-59-29.178zm50.384 52.24c0-8.94-14.653-16.192-32.739-16.192-18.076 0-32.736 7.253-32.736 16.193 0 8.944 14.66 16.193 32.736 16.193 4.004 0 7.816-.373 11.361-1.023 6.778 5.119 16.375 5.59 16.375 5.59-4.11-2.578-6.233-5.49-7.302-8.122 7.488-2.963 12.305-7.52 12.305-12.638z" stroke-width="1.5" fill="#2afc2a"/></g></svg>